<svg xmlns="http://www.w3.org/2000/svg" viewBox="0 0 182 29.91"><defs><style>.a{fill:#f7931e;}.b{fill:#fff;}</style></defs><title>now-available</title><polygon class="a" points="0.89 0 182 0.72 181.11 29.91 0 29.19 0.89 0"/><path class="b" d="M-43.92,15.68h-4l-4.17-8h-.07q.15,1.9.15,2.9v5.15H-54.8V4.26h4l4.16,7.94h0q-.11-1.73-.11-2.77V4.26h2.75Z" transform="translate(68 5)"/><path class="b" d="M-29.17,10a6.16,6.16,0,0,1-1.41,4.38,5.42,5.42,0,0,1-4.14,1.5,5.41,5.41,0,0,1-4.12-1.51,6.13,6.13,0,0,1-1.43-4.39,6.09,6.09,0,0,1,1.43-4.36,5.44,5.44,0,0,1,4.14-1.5,5.41,5.41,0,0,1,4.13,1.49A6.17,6.17,0,0,1-29.17,10ZM-37,10q0,3.31,2.3,3.31a2,2,0,0,0,1.74-.8A4.41,4.41,0,0,0-32.42,10,4.44,4.44,0,0,0-33,7.43a2,2,0,0,0-1.71-.82Q-37,6.61-37,10Z" transform="translate(68 5)"/><path class="b" d="M-13.17,15.68h-3.65l-1.09-5q-.08-.31-.25-1.24t-.25-1.55q-.06.51-.2,1.26t-.28,1.39q-.14.63-1.14,5.12h-3.65L-26.5,4.26h3L-22.28,10q.42,1.9.58,3,.1-.8.36-2.16t.49-2.27l1-4.32H-17l1,4.32q.25,1,.51,2.4t.34,2q.1-.87.55-3l1.27-5.74h3Z" transform="translate(68 5)"/><path class="b" d="M5.48,15.68l-.56-2.14H1.21L.63,15.68H-2.76L1,4.21H5.09L8.86,15.68ZM4.28,11,3.79,9.13q-.17-.62-.42-1.62T3,6.09q-.07.4-.28,1.31T1.85,11Z" transform="translate(68 5)"/><path class="b" d="M18.11,4.26h3.45L17.82,15.68H14.19L10.46,4.26h3.47L15.48,10A17.7,17.7,0,0,1,16,12.73q.05-.55.22-1.37t.29-1.29Z" transform="translate(68 5)"/><path class="b" d="M31.4,15.68l-.56-2.14H27.13l-.58,2.14H23.16L26.89,4.21H31l3.77,11.47ZM30.2,11l-.49-1.87q-.17-.62-.42-1.62T29,6.09q-.07.4-.28,1.31T27.77,11Z" transform="translate(68 5)"/><path class="b" d="M37.61,15.68V4.26h3.1V15.68Z" transform="translate(68 5)"/><path class="b" d="M44.78,15.68V4.26h3.09v8.93h4.4v2.49Z" transform="translate(68 5)"/><path class="b" d="M62.7,15.68l-.56-2.14H58.43l-.58,2.14H54.46L58.19,4.21H62.3l3.77,11.47ZM61.5,11,61,9.13q-.17-.62-.42-1.62t-.32-1.42q-.07.4-.28,1.31T59.07,11Z" transform="translate(68 5)"/><path class="b" d="M68.91,4.26h4a6.78,6.78,0,0,1,3.46.69A2.34,2.34,0,0,1,77.48,7.1,2.72,2.72,0,0,1,77,8.74a2.19,2.19,0,0,1-1.3.88V9.7a2.66,2.66,0,0,1,1.54.94,2.83,2.83,0,0,1,.48,1.7,2.92,2.92,0,0,1-1.17,2.45,5.11,5.11,0,0,1-3.18.89H68.91ZM72,8.64h.93a1.68,1.68,0,0,0,1-.27,1,1,0,0,0,.36-.81q0-1-1.45-1H72Zm0,2.26v2.4h1.09q1.45,0,1.45-1.22a1,1,0,0,0-.39-.87A1.78,1.78,0,0,0,73,10.9Z" transform="translate(68 5)"/><path class="b" d="M81.29,15.68V4.26h3.09v8.93h4.4v2.49Z" transform="translate(68 5)"/><path class="b" d="M99,15.68H92.21V4.26H99V6.73h-3.7v1.8h3.42V11H95.29v2.16H99Z" transform="translate(68 5)"/></svg>