<svg xmlns="http://www.w3.org/2000/svg" width="123.72" height="25.02" viewBox="0 0 123.72 25.02"><defs><style>.a{fill:#aaa;}</style></defs><title>ruuvi-logo</title><path class="a" d="M89.64,24.91A3,3,0,0,1,87.78,24a2.64,2.64,0,0,1-.58-1.18c-0.09-.44-0.07-0.64-0.07-5.38,0-5.69,0-5.17.31-6a2.83,2.83,0,0,1,1.09-1.11A3.58,3.58,0,0,1,90.64,10a2.41,2.41,0,0,1,2.43,2.39s0,0.07,0,.11v5.23c0,4.71,0,4.5-.11,5.07a2.68,2.68,0,0,1-1.43,1.78,3.88,3.88,0,0,1-1.92.29h0ZM50.06,25A9.55,9.55,0,0,1,43,21.64a9.91,9.91,0,0,1-2.52-5.15c-0.17-1-.18-1.71-0.17-7.95,0-6.69-.06-6,0.34-6.87A2.7,2.7,0,0,1,42.39.28a4.39,4.39,0,0,1,1.76,0,2.82,2.82,0,0,1,2,2.06c0.07,0.24.07,0.83,0.09,6.6v6.33a3.87,3.87,0,0,0,1.79,3A4.56,4.56,0,0,0,55.14,15V8.63c0-6.63,0-6.28.28-6.89A2.83,2.83,0,0,1,57.31.23,4.85,4.85,0,0,1,59,.23a2.16,2.16,0,0,1,1,.68,1.92,1.92,0,0,1,.59,1.5V9c0,7.37.25,7-.08,8.31a10.06,10.06,0,0,1-3.18,5.28A10.6,10.6,0,0,1,50.06,25h0ZM2.51,24.91A3,3,0,0,1,.64,24a3.51,3.51,0,0,1-.58-1.18C0,22.34,0,22.12,0,16.06,0,11,0,9.5.05,9.15A9.93,9.93,0,0,1,2.8,3.34,10.08,10.08,0,0,1,10,.15a3.71,3.71,0,0,1,1.61.18A2.88,2.88,0,0,1,13.19,1.9a3.58,3.58,0,0,1,.21,1.42,2.56,2.56,0,0,1-1.71,2.49,5.27,5.27,0,0,1-1.36.3,5.12,5.12,0,0,0-2,.57,4.4,4.4,0,0,0-1.94,1.9,5.86,5.86,0,0,0-.34,1C6,10.12,6,11.31,6,16.17c0,5.71,0,6.15-.12,6.73a2.65,2.65,0,0,1-1.41,1.72A3.87,3.87,0,0,1,2.51,24.91Zm69-1.78C71.29,22.72,63.93,4,63.83,3.65a2.35,2.35,0,0,1,0-1.46,3.1,3.1,0,0,1,2.27-2A3.45,3.45,0,0,1,68.24.4a3,3,0,0,1,1,1c0.19,0.33.17,0.26,2.88,7.15,1.05,2.67,1.92,4.84,1.94,4.82s1.05-2.64,2.31-5.83c1.61-4.09,2.34-5.9,2.48-6.13A2.61,2.61,0,0,1,80.52.15a4.09,4.09,0,0,1,1.75.09,3.14,3.14,0,0,1,1.3.83,2.38,2.38,0,0,1,.7,1.17,2.34,2.34,0,0,1,0,1.37c-0.08.35-7.4,19-7.68,19.52a2.72,2.72,0,0,1-5.09,0h0Z" transform="translate(0.01)"/><path class="a" d="M26.28,25a9.53,9.53,0,0,1-7.1-3.33,9.87,9.87,0,0,1-2.54-5.15c-0.17-1-.18-1.71-0.17-7.94,0-6.69-.06-6,0.34-6.87A2.7,2.7,0,0,1,18.64.32a4.39,4.39,0,0,1,1.76,0,2.82,2.82,0,0,1,2,2.06c0.07,0.24.07,0.83,0.09,6.6v6.33a3.87,3.87,0,0,0,1.79,3,4.69,4.69,0,0,0,5,.08A4.51,4.51,0,0,0,31.35,15V8.63c0-6.63,0-6.28.28-6.89A2.83,2.83,0,0,1,33.52.28a4.85,4.85,0,0,1,1.74,0A3.44,3.44,0,0,1,36.64,1a2.67,2.67,0,0,1,1,1.49V9c0,7.37-.14,7-0.48,8.31a10.33,10.33,0,0,1-3.37,5.26A11,11,0,0,1,26.32,25h0Z" transform="translate(0.01)"/><circle class="a" cx="90.04" cy="3.74" r="3.74"/><path class="a" d="M111.64,0.44a12,12,0,1,0,.13,0h-0.13Zm2.5,20a7.69,7.69,0,0,1-7.69-7.61,5.32,5.32,0,0,0,6.34-7.65,7.69,7.69,0,1,1,1.35,15.22v0Z" transform="translate(0.01)"/></svg>