<svg xmlns="http://www.w3.org/2000/svg" width="155.47" height="36.32" viewBox="0 0 155.47 36.32"><defs><style>.a{fill:#333;}</style></defs><title>ruuvi-logo</title><path class="a" d="M138.31-5.78A14.74,14.74,0,1,1,123.57,9,14.71,14.71,0,0,1,138.31-5.78Zm0-3.42A18.16,18.16,0,1,0,156.47,9,18.19,18.19,0,0,0,138.31-9.2Z" transform="translate(-1 9.2)"/><path class="a" d="M142.08,18.5a9.52,9.52,0,0,0,7.16-4.42,10.45,10.45,0,0,0,1.06-2.35,9.73,9.73,0,0,0-.06-5.5,9.74,9.74,0,0,0-3.08-4.53,9.51,9.51,0,0,0-8.21-1.82L138.49,0a0.74,0.74,0,0,0,.1.27A6.33,6.33,0,0,1,139.11,2a8.37,8.37,0,0,1,0,1.75,6.22,6.22,0,0,1-3.82,4.86,6.39,6.39,0,0,1-3.14.38l-0.38-.05a0.74,0.74,0,0,0,0,.53,9.48,9.48,0,0,0,8.69,9,14.31,14.31,0,0,0,1.63,0h0Z" transform="translate(-1 9.2)"/><path class="a" d="M111.22,24.32a3.67,3.67,0,0,1-2.27-1.08,3.24,3.24,0,0,1-.72-1.45c-0.12-.54-0.09-0.78-0.09-6.61,0-7,0-6.35.38-7.37a3.48,3.48,0,0,1,1.35-1.37A4.4,4.4,0,0,1,112.45,6a3,3,0,0,1,3,3.08c0,0.4,0,2.65,0,6.44,0,5.8,0,5.53-.13,6.23A3.3,3.3,0,0,1,113.59,24a4.77,4.77,0,0,1-2.37.36h0Zm-48.65,0a12.28,12.28,0,0,1-8.73-4.07,12.1,12.1,0,0,1-3.1-6.31c-0.2-1.21-.22-2.09-0.2-9.76,0-8.23-.08-7.33.42-8.44A3.32,3.32,0,0,1,53.13-6a5.4,5.4,0,0,1,2.17,0,3.47,3.47,0,0,1,2.47,2.53c0.08,0.3.09,1,.12,8.11l0,7.79a4.76,4.76,0,0,0,2.2,3.67,5.61,5.61,0,0,0,8.69-4c0-.29.05-3.22,0.05-7.83,0-8.16,0-7.73.34-8.48A3.48,3.48,0,0,1,71.48-6a6,6,0,0,1,2.14,0,3.55,3.55,0,0,1,1.53.84,3.1,3.1,0,0,1,1,1.84V4.72c0,9.07,0,8.6-.39,10.22a12.46,12.46,0,0,1-4.05,6.44,12.59,12.59,0,0,1-9.15,2.93h0Zm-58.48,0a3.66,3.66,0,0,1-2.27-1.08,4.32,4.32,0,0,1-.72-1.45C1,21.2,1,20.93,1,13.48,1,7.26,1,5.41,1.07,5A12.22,12.22,0,0,1,4.44-2.21a12.4,12.4,0,0,1,8.82-3.92,4.57,4.57,0,0,1,2,.22,3.54,3.54,0,0,1,2,1.93,4.41,4.41,0,0,1,.25,1.75A3.15,3.15,0,0,1,15.37.83a6.48,6.48,0,0,1-1.67.36,6.29,6.29,0,0,0-2.46.7A5.42,5.42,0,0,0,8.86,4.23,7.21,7.21,0,0,0,8.44,5.4c-0.11.66-.07,2.12-0.09,8.1,0,7,.06,7.56-0.15,8.28A3.26,3.26,0,0,1,6.45,24,4.76,4.76,0,0,1,4.08,24.32Zm84.84-2.18c-0.25-.51-9.32-23.5-9.44-24a2.89,2.89,0,0,1,0-1.79,3.82,3.82,0,0,1,2.79-2.51,4.25,4.25,0,0,1,2.65.29,3.68,3.68,0,0,1,1.23,1.22c0.24,0.4.21,0.33,3.54,8.79,1.29,3.28,2.37,6,2.38,5.93s1.3-3.25,2.84-7.17c2-5,2.88-7.25,3-7.54A3.21,3.21,0,0,1,100-6.13a5,5,0,0,1,2.16.11,3.86,3.86,0,0,1,1.59,1,2.93,2.93,0,0,1,.86,1.44,2.87,2.87,0,0,1,0,1.68c-0.1.43-9.1,23.3-9.45,24a3.35,3.35,0,0,1-6.26,0h0Z" transform="translate(-1 9.2)"/><path class="a" d="M33.31,24.38a12.28,12.28,0,0,1-8.73-4.07A12.1,12.1,0,0,1,21.48,14c-0.21-1.21-.22-2.1-0.21-9.76,0-8.23-.08-7.33.42-8.44a3.31,3.31,0,0,1,2.18-1.71,5.39,5.39,0,0,1,2.17,0,3.47,3.47,0,0,1,2.47,2.53c0.08,0.3.09,1,.12,8.11l0,7.79a4.76,4.76,0,0,0,2.2,3.67,5.77,5.77,0,0,0,6.1.09,5.54,5.54,0,0,0,2.59-4.13c0-.29.05-3.22,0.05-7.83,0-8.16,0-7.73.34-8.48A3.48,3.48,0,0,1,42.22-6a6,6,0,0,1,2.14,0,3.53,3.53,0,0,1,1.53.84,3.1,3.1,0,0,1,1,1.84V4.79c0,9.07,0,8.6-.39,10.22a12.46,12.46,0,0,1-4,6.44,12.59,12.59,0,0,1-9.15,2.93h0Z" transform="translate(-1 9.2)"/><circle class="a" cx="110.72" cy="7.49" r="4.6"/></svg>